<!--?xml version="1.0" standalone="no"?-->
              <svg id="sw-js-blob-svg" viewBox="0 0 100 100" xmlns="http://www.w3.org/2000/svg" version="1.1">
                    <defs> 
                        <linearGradient id="sw-gradient" x1="0" x2="1" y1="1" y2="0">
                            <stop id="stop1" stop-color="rgba(13.584, 217.504, 172.604, 1)" offset="0%"></stop>
                            <stop id="stop2" stop-color="rgba(228.888, 228.888, 228.888, 1)" offset="100%"></stop>
                        </linearGradient>
                    </defs>
                <path fill="url(#sw-gradient)" d="M20.5,-31.7C23.2,-26.2,19.8,-15.8,19,-8.5C18.2,-1.2,20,3,20.3,8C20.7,13.1,19.5,19.2,15.9,25.5C12.2,31.7,6.1,38.2,-0.4,38.7C-6.9,39.2,-13.7,33.8,-20.9,28.6C-28.1,23.5,-35.6,18.8,-35.5,13C-35.4,7.2,-27.8,0.3,-22.9,-5.2C-18,-10.7,-16,-14.9,-12.6,-20.2C-9.3,-25.4,-4.6,-31.7,2.1,-34.6C8.9,-37.6,17.8,-37.1,20.5,-31.7Z" width="100%" height="100%" transform="translate(50 50)" stroke-width="0" style="transition: all 0.3s ease 0s;" stroke="url(#sw-gradient)"></path>
              </svg>